<svg id="visual" viewBox="0 0 900 600" width="900"
    height="600"
    xmlns="http://www.w3.org/2000/svg"
    xmlns:xlink="http://www.w3.org/1999/xlink"
    version="1.1">
    <g
        transform="translate(468.40056602391087 295.86977534037396)">
        <path
            d="M180.9 -269.1C227.8 -251.4 254.4 -189.9 266.4 -131.2C278.4 -72.5 275.8 -16.6 276.2 45.7C276.6 108 280 176.8 246.3 210.4C212.5 244 141.6 242.4 79 253.9C16.3 265.5 -38 290.1 -86.2 281.5C-134.4 272.9 -176.4 231.1 -220.1 187.1C-263.7 143.2 -309 97.1 -313 47.1C-316.9 -2.9 -279.4 -56.7 -244.6 -102.9C-209.8 -149.1 -177.6 -187.7 -137.3 -208.3C-97 -229 -48.5 -231.7 9.3 -246.1C67 -260.6 134.1 -286.8 180.9 -269.1"
            fill="#021c30"></path>
    </g>
</svg>