<svg id="visual" viewBox="0 0 900 600" width="900"
    height="600"
    xmlns="http://www.w3.org/2000/svg"
    xmlns:xlink="http://www.w3.org/1999/xlink"
    version="1.1">
    <g
        transform="translate(467.88403554999394 301.74987331011977)">
        <path
            d="M145.5 -235.9C190.9 -197.3 231.4 -160.8 245 -116.2C258.7 -71.7 245.3 -19.2 231.4 28.7C217.4 76.6 202.8 119.8 181.7 174.2C160.7 228.6 133.2 294.2 88.3 312.9C43.5 331.7 -18.7 303.5 -72.4 274.9C-126.2 246.2 -171.6 217.1 -210.7 178.8C-249.9 140.4 -282.8 92.9 -286.2 43.5C-289.6 -5.9 -263.5 -57.1 -240 -110C-216.5 -162.9 -195.6 -217.3 -156 -258.6C-116.4 -299.8 -58.2 -327.9 -4.1 -321.6C50.1 -315.3 100.2 -274.6 145.5 -235.9"
            fill="#021c30"></path>
    </g>
</svg>