<svg id="visual" viewBox="0 0 900 600" width="900"
    height="600"
    xmlns="http://www.w3.org/2000/svg"
    xmlns:xlink="http://www.w3.org/1999/xlink"
    version="1.1">
    <g
        transform="translate(429.12496391417955 313.46354355459334)">
        <path
            d="M176.4 -278.8C217.6 -248 232.5 -180.5 253 -120.1C273.5 -59.7 299.6 -6.4 287.9 38C276.1 82.4 226.6 117.9 186.6 158.6C146.5 199.2 116 245 73.5 263.4C31.1 281.8 -23.2 272.8 -82.3 263.2C-141.3 253.6 -205.2 243.4 -231 205C-256.9 166.6 -244.8 100 -244.6 40.7C-244.5 -18.6 -256.4 -70.6 -241.7 -113.6C-227 -156.6 -185.7 -190.6 -141 -219.8C-96.2 -249.1 -48.1 -273.5 9.7 -288.7C67.6 -303.8 135.2 -309.6 176.4 -278.8"
            fill="#021c30"></path>
    </g>
</svg>