<svg id="visual" viewBox="0 0 3600 100" width="3600" height="100" xmlns="http://www.w3.org/2000/svg" xmlns:xlink="http://www.w3.org/1999/xlink" version="1.1"><path d="M0 21L54.5 21.7C109 22.3 218 23.7 327.2 24.5C436.3 25.3 545.7 25.7 654.8 24.3C764 23 873 20 982 18.8C1091 17.7 1200 18.3 1309 19.7C1418 21 1527 23 1636.2 25.5C1745.3 28 1854.7 31 1963.8 30.7C2073 30.3 2182 26.7 2291 26.7C2400 26.7 2509 30.3 2618 30.3C2727 30.3 2836 26.7 2945.2 25.7C3054.3 24.7 3163.7 26.3 3272.8 26C3382 25.7 3491 23.3 3545.5 22.2L3600 21L3600 0L3545.5 0C3491 0 3382 0 3272.8 0C3163.7 0 3054.3 0 2945.2 0C2836 0 2727 0 2618 0C2509 0 2400 0 2291 0C2182 0 2073 0 1963.8 0C1854.7 0 1745.3 0 1636.2 0C1527 0 1418 0 1309 0C1200 0 1091 0 982 0C873 0 764 0 654.8 0C545.7 0 436.3 0 327.2 0C218 0 109 0 54.5 0L0 0Z" fill="#001220"></path><path d="M0 17L54.5 19.2C109 21.3 218 25.7 327.2 27.5C436.3 29.3 545.7 28.7 654.8 27C764 25.3 873 22.7 982 21.3C1091 20 1200 20 1309 19.3C1418 18.7 1527 17.3 1636.2 18C1745.3 18.7 1854.7 21.3 1963.8 23.2C2073 25 2182 26 2291 25C2400 24 2509 21 2618 19C2727 17 2836 16 2945.2 17.2C3054.3 18.3 3163.7 21.7 3272.8 22C3382 22.3 3491 19.7 3545.5 18.3L3600 17L3600 0L3545.5 0C3491 0 3382 0 3272.8 0C3163.7 0 3054.3 0 2945.2 0C2836 0 2727 0 2618 0C2509 0 2400 0 2291 0C2182 0 2073 0 1963.8 0C1854.7 0 1745.3 0 1636.2 0C1527 0 1418 0 1309 0C1200 0 1091 0 982 0C873 0 764 0 654.8 0C545.7 0 436.3 0 327.2 0C218 0 109 0 54.5 0L0 0Z" fill="#021a2c"></path><path d="M0 17L54.5 18C109 19 218 21 327.2 22.5C436.3 24 545.7 25 654.8 24.2C764 23.3 873 20.7 982 19C1091 17.3 1200 16.7 1309 15.7C1418 14.7 1527 13.3 1636.2 14.8C1745.3 16.3 1854.7 20.7 1963.8 23C2073 25.3 2182 25.7 2291 25.3C2400 25 2509 24 2618 23C2727 22 2836 21 2945.2 19.8C3054.3 18.7 3163.7 17.3 3272.8 16.3C3382 15.3 3491 14.7 3545.5 14.3L3600 14L3600 0L3545.5 0C3491 0 3382 0 3272.8 0C3163.7 0 3054.3 0 2945.2 0C2836 0 2727 0 2618 0C2509 0 2400 0 2291 0C2182 0 2073 0 1963.8 0C1854.7 0 1745.3 0 1636.2 0C1527 0 1418 0 1309 0C1200 0 1091 0 982 0C873 0 764 0 654.8 0C545.7 0 436.3 0 327.2 0C218 0 109 0 54.5 0L0 0Z" fill="#012139"></path><path d="M0 11L54.5 11.5C109 12 218 13 327.2 13.3C436.3 13.7 545.7 13.3 654.8 13.8C764 14.3 873 15.7 982 15.5C1091 15.3 1200 13.7 1309 14.2C1418 14.7 1527 17.3 1636.2 17.2C1745.3 17 1854.7 14 1963.8 12.8C2073 11.7 2182 12.3 2291 13C2400 13.7 2509 14.3 2618 15C2727 15.7 2836 16.3 2945.2 16.7C3054.3 17 3163.7 17 3272.8 17.5C3382 18 3491 19 3545.5 19.5L3600 20L3600 0L3545.5 0C3491 0 3382 0 3272.8 0C3163.7 0 3054.3 0 2945.2 0C2836 0 2727 0 2618 0C2509 0 2400 0 2291 0C2182 0 2073 0 1963.8 0C1854.7 0 1745.3 0 1636.2 0C1527 0 1418 0 1309 0C1200 0 1091 0 982 0C873 0 764 0 654.8 0C545.7 0 436.3 0 327.2 0C218 0 109 0 54.5 0L0 0Z" fill="#002947"></path><path d="M0 13L54.5 12.5C109 12 218 11 327.2 11C436.3 11 545.7 12 654.8 11.3C764 10.7 873 8.3 982 8.7C1091 9 1200 12 1309 12.3C1418 12.7 1527 10.3 1636.2 8.8C1745.3 7.3 1854.7 6.7 1963.8 7.8C2073 9 2182 12 2291 13.2C2400 14.3 2509 13.7 2618 12.2C2727 10.7 2836 8.3 2945.2 8.7C3054.3 9 3163.7 12 3272.8 12C3382 12 3491 9 3545.5 7.5L3600 6L3600 0L3545.5 0C3491 0 3382 0 3272.8 0C3163.7 0 3054.3 0 2945.2 0C2836 0 2727 0 2618 0C2509 0 2400 0 2291 0C2182 0 2073 0 1963.8 0C1854.7 0 1745.3 0 1636.2 0C1527 0 1418 0 1309 0C1200 0 1091 0 982 0C873 0 764 0 654.8 0C545.7 0 436.3 0 327.2 0C218 0 109 0 54.5 0L0 0Z" fill="#003054"></path><path d="M0 7L54.5 7.3C109 7.7 218 8.3 327.2 8.3C436.3 8.3 545.7 7.7 654.8 6.8C764 6 873 5 982 5.3C1091 5.7 1200 7.3 1309 7.5C1418 7.7 1527 6.3 1636.2 6C1745.3 5.7 1854.7 6.3 1963.8 6.2C2073 6 2182 5 2291 5.3C2400 5.7 2509 7.3 2618 7.2C2727 7 2836 5 2945.2 4.3C3054.3 3.7 3163.7 4.3 3272.8 4.5C3382 4.7 3491 4.3 3545.5 4.2L3600 4L3600 0L3545.5 0C3491 0 3382 0 3272.8 0C3163.7 0 3054.3 0 2945.2 0C2836 0 2727 0 2618 0C2509 0 2400 0 2291 0C2182 0 2073 0 1963.8 0C1854.7 0 1745.3 0 1636.2 0C1527 0 1418 0 1309 0C1200 0 1091 0 982 0C873 0 764 0 654.8 0C545.7 0 436.3 0 327.2 0C218 0 109 0 54.5 0L0 0Z" fill="#003762"></path></svg>