<svg id="visual" viewBox="0 0 900 450" width="900"
    height="450"
    xmlns="http://www.w3.org/2000/svg"
    xmlns:xlink="http://www.w3.org/1999/xlink"
    version="1.1">
    <path
        d="M0 428L21.5 427.7C43 427.3 86 426.7 128.8 424.2C171.7 421.7 214.3 417.3 257.2 417.3C300 417.3 343 421.7 385.8 423.3C428.7 425 471.3 424 514.2 422C557 420 600 417 642.8 415.7C685.7 414.3 728.3 414.7 771.2 417.2C814 419.7 857 424.3 878.5 426.7L900 429L900 451L878.5 451C857 451 814 451 771.2 451C728.3 451 685.7 451 642.8 451C600 451 557 451 514.2 451C471.3 451 428.7 451 385.8 451C343 451 300 451 257.2 451C214.3 451 171.7 451 128.8 451C86 451 43 451 21.5 451L0 451Z"
        fill="#003762"></path>
    <path
        d="M0 428L21.5 428.8C43 429.7 86 431.3 128.8 432.3C171.7 433.3 214.3 433.7 257.2 434.2C300 434.7 343 435.3 385.8 434.5C428.7 433.7 471.3 431.3 514.2 429.2C557 427 600 425 642.8 425.3C685.7 425.7 728.3 428.3 771.2 428.8C814 429.3 857 427.7 878.5 426.8L900 426L900 451L878.5 451C857 451 814 451 771.2 451C728.3 451 685.7 451 642.8 451C600 451 557 451 514.2 451C471.3 451 428.7 451 385.8 451C343 451 300 451 257.2 451C214.3 451 171.7 451 128.8 451C86 451 43 451 21.5 451L0 451Z"
        fill="#002948"></path>
    <path
        d="M0 441L21.5 440.7C43 440.3 86 439.7 128.8 438.3C171.7 437 214.3 435 257.2 435.5C300 436 343 439 385.8 440.2C428.7 441.3 471.3 440.7 514.2 440.8C557 441 600 442 642.8 441.8C685.7 441.7 728.3 440.3 771.2 440.2C814 440 857 441 878.5 441.5L900 442L900 451L878.5 451C857 451 814 451 771.2 451C728.3 451 685.7 451 642.8 451C600 451 557 451 514.2 451C471.3 451 428.7 451 385.8 451C343 451 300 451 257.2 451C214.3 451 171.7 451 128.8 451C86 451 43 451 21.5 451L0 451Z"
        fill="#021c30"></path>
</svg>