<svg id="visual" viewBox="0 0 5200 1440"
    width="5200" height="1440"
    xmlns="http://www.w3.org/2000/svg"
    xmlns:xlink="http://www.w3.org/1999/xlink"
    version="1.1">
    <rect x="0" y="0" width="5200" height="1440"
        fill="#001220"></rect>
    <path
        d="M0 404L123.8 405C247.7 406 495.3 408 743 421C990.7 434 1238.3 458 1486 488C1733.7 518 1981.3 554 2228.8 558.5C2476.3 563 2723.7 536 2971.2 504.3C3218.7 472.7 3466.3 436.3 3714 414.7C3961.7 393 4209.3 386 4457 413.5C4704.7 441 4952.3 503 5076.2 534L5200 565L5200 0L5076.2 0C4952.3 0 4704.7 0 4457 0C4209.3 0 3961.7 0 3714 0C3466.3 0 3218.7 0 2971.2 0C2723.7 0 2476.3 0 2228.8 0C1981.3 0 1733.7 0 1486 0C1238.3 0 990.7 0 743 0C495.3 0 247.7 0 123.8 0L0 0Z"
        fill="#001220"></path>
    <path
        d="M0 400L123.8 402.2C247.7 404.3 495.3 408.7 743 416.3C990.7 424 1238.3 435 1486 419.7C1733.7 404.3 1981.3 362.7 2228.8 363.3C2476.3 364 2723.7 407 2971.2 412.5C3218.7 418 3466.3 386 3714 360.2C3961.7 334.3 4209.3 314.7 4457 327.7C4704.7 340.7 4952.3 386.3 5076.2 409.2L5200 432L5200 0L5076.2 0C4952.3 0 4704.7 0 4457 0C4209.3 0 3961.7 0 3714 0C3466.3 0 3218.7 0 2971.2 0C2723.7 0 2476.3 0 2228.8 0C1981.3 0 1733.7 0 1486 0C1238.3 0 990.7 0 743 0C495.3 0 247.7 0 123.8 0L0 0Z"
        fill="#021c30"></path>
    <path
        d="M0 366L123.8 357C247.7 348 495.3 330 743 319.7C990.7 309.3 1238.3 306.7 1486 311.2C1733.7 315.7 1981.3 327.3 2228.8 317.8C2476.3 308.3 2723.7 277.7 2971.2 263.5C3218.7 249.3 3466.3 251.7 3714 271C3961.7 290.3 4209.3 326.7 4457 324.5C4704.7 322.3 4952.3 281.7 5076.2 261.3L5200 241L5200 0L5076.2 0C4952.3 0 4704.7 0 4457 0C4209.3 0 3961.7 0 3714 0C3466.3 0 3218.7 0 2971.2 0C2723.7 0 2476.3 0 2228.8 0C1981.3 0 1733.7 0 1486 0C1238.3 0 990.7 0 743 0C495.3 0 247.7 0 123.8 0L0 0Z"
        fill="#002540"></path>
    <path
        d="M0 155L123.8 155.3C247.7 155.7 495.3 156.3 743 152.8C990.7 149.3 1238.3 141.7 1486 157.7C1733.7 173.7 1981.3 213.3 2228.8 235C2476.3 256.7 2723.7 260.3 2971.2 258.7C3218.7 257 3466.3 250 3714 232.3C3961.7 214.7 4209.3 186.3 4457 177C4704.7 167.7 4952.3 177.3 5076.2 182.2L5200 187L5200 0L5076.2 0C4952.3 0 4704.7 0 4457 0C4209.3 0 3961.7 0 3714 0C3466.3 0 3218.7 0 2971.2 0C2723.7 0 2476.3 0 2228.8 0C1981.3 0 1733.7 0 1486 0C1238.3 0 990.7 0 743 0C495.3 0 247.7 0 123.8 0L0 0Z"
        fill="#002e51"></path>
    <path
        d="M0 73L123.8 72.2C247.7 71.3 495.3 69.7 743 77.5C990.7 85.3 1238.3 102.7 1486 111C1733.7 119.3 1981.3 118.7 2228.8 112.8C2476.3 107 2723.7 96 2971.2 93.3C3218.7 90.7 3466.3 96.3 3714 97.8C3961.7 99.3 4209.3 96.7 4457 90.3C4704.7 84 4952.3 74 5076.2 69L5200 64L5200 0L5076.2 0C4952.3 0 4704.7 0 4457 0C4209.3 0 3961.7 0 3714 0C3466.3 0 3218.7 0 2971.2 0C2723.7 0 2476.3 0 2228.8 0C1981.3 0 1733.7 0 1486 0C1238.3 0 990.7 0 743 0C495.3 0 247.7 0 123.8 0L0 0Z"
        fill="#003762"></path>
</svg>