<svg id="visual" viewBox="0 0 5200 600"
    width="5200" height="600"
    xmlns="http://www.w3.org/2000/svg"
    xmlns:xlink="http://www.w3.org/1999/xlink"
    version="1.1">
    <path
        d="M0 50L54.2 58.5C108.3 67 216.7 84 325 100.7C433.3 117.3 541.7 133.7 650 136.5C758.3 139.3 866.7 128.7 975 117C1083.3 105.3 1191.7 92.7 1300 95.7C1408.3 98.7 1516.7 117.3 1625 123.7C1733.3 130 1841.7 124 1950 114C2058.3 104 2166.7 90 2275 96.3C2383.3 102.7 2491.7 129.3 2600 135.5C2708.3 141.7 2816.7 127.3 2925 115.7C3033.3 104 3141.7 95 3250 106.8C3358.3 118.7 3466.7 151.3 3575 150.5C3683.3 149.7 3791.7 115.3 3900 95.2C4008.3 75 4116.7 69 4225 71.2C4333.3 73.3 4441.7 83.7 4550 83C4658.3 82.3 4766.7 70.7 4875 71.8C4983.3 73 5091.7 87 5145.8 94L5200 101L5200 0L5145.8 0C5091.7 0 4983.3 0 4875 0C4766.7 0 4658.3 0 4550 0C4441.7 0 4333.3 0 4225 0C4116.7 0 4008.3 0 3900 0C3791.7 0 3683.3 0 3575 0C3466.7 0 3358.3 0 3250 0C3141.7 0 3033.3 0 2925 0C2816.7 0 2708.3 0 2600 0C2491.7 0 2383.3 0 2275 0C2166.7 0 2058.3 0 1950 0C1841.7 0 1733.3 0 1625 0C1516.7 0 1408.3 0 1300 0C1191.7 0 1083.3 0 975 0C866.7 0 758.3 0 650 0C541.7 0 433.3 0 325 0C216.7 0 108.3 0 54.2 0L0 0Z"
        fill="#001220"></path>
</svg>