<svg id="visual" viewBox="0 0 5200 1440"
    width="5200" height="1440"
    xmlns="http://www.w3.org/2000/svg"
    xmlns:xlink="http://www.w3.org/1999/xlink"
    version="1.1">
    <rect x="0" y="0" width="5200" height="1440"
        fill="#001220"></rect>
    <path
        d="M0 1035L123.8 1041.5C247.7 1048 495.3 1061 743 1029C990.7 997 1238.3 920 1486 890.7C1733.7 861.3 1981.3 879.7 2228.8 900.2C2476.3 920.7 2723.7 943.3 2971.2 952.3C3218.7 961.3 3466.3 956.7 3714 942.5C3961.7 928.3 4209.3 904.7 4457 899.2C4704.7 893.7 4952.3 906.3 5076.2 912.7L5200 919L5200 1441L5076.2 1441C4952.3 1441 4704.7 1441 4457 1441C4209.3 1441 3961.7 1441 3714 1441C3466.3 1441 3218.7 1441 2971.2 1441C2723.7 1441 2476.3 1441 2228.8 1441C1981.3 1441 1733.7 1441 1486 1441C1238.3 1441 990.7 1441 743 1441C495.3 1441 247.7 1441 123.8 1441L0 1441Z"
        fill="#001220"></path>
    <path
        d="M0 953L123.8 982.8C247.7 1012.7 495.3 1072.3 743 1075.5C990.7 1078.7 1238.3 1025.3 1486 1023.5C1733.7 1021.7 1981.3 1071.3 2228.8 1092.2C2476.3 1113 2723.7 1105 2971.2 1090.3C3218.7 1075.7 3466.3 1054.3 3714 1060.7C3961.7 1067 4209.3 1101 4457 1098.2C4704.7 1095.3 4952.3 1055.7 5076.2 1035.8L5200 1016L5200 1441L5076.2 1441C4952.3 1441 4704.7 1441 4457 1441C4209.3 1441 3961.7 1441 3714 1441C3466.3 1441 3218.7 1441 2971.2 1441C2723.7 1441 2476.3 1441 2228.8 1441C1981.3 1441 1733.7 1441 1486 1441C1238.3 1441 990.7 1441 743 1441C495.3 1441 247.7 1441 123.8 1441L0 1441Z"
        fill="#021c30"></path>
    <path
        d="M0 1133L123.8 1120.2C247.7 1107.3 495.3 1081.7 743 1097C990.7 1112.3 1238.3 1168.7 1486 1180.7C1733.7 1192.7 1981.3 1160.3 2228.8 1155.7C2476.3 1151 2723.7 1174 2971.2 1161.7C3218.7 1149.3 3466.3 1101.7 3714 1087.7C3961.7 1073.7 4209.3 1093.3 4457 1113.5C4704.7 1133.7 4952.3 1154.3 5076.2 1164.7L5200 1175L5200 1441L5076.2 1441C4952.3 1441 4704.7 1441 4457 1441C4209.3 1441 3961.7 1441 3714 1441C3466.3 1441 3218.7 1441 2971.2 1441C2723.7 1441 2476.3 1441 2228.8 1441C1981.3 1441 1733.7 1441 1486 1441C1238.3 1441 990.7 1441 743 1441C495.3 1441 247.7 1441 123.8 1441L0 1441Z"
        fill="#002540"></path>
    <path
        d="M0 1236L123.8 1237.8C247.7 1239.7 495.3 1243.3 743 1230.7C990.7 1218 1238.3 1189 1486 1186.2C1733.7 1183.3 1981.3 1206.7 2228.8 1207.7C2476.3 1208.7 2723.7 1187.3 2971.2 1190C3218.7 1192.7 3466.3 1219.3 3714 1226.7C3961.7 1234 4209.3 1222 4457 1210.8C4704.7 1199.7 4952.3 1189.3 5076.2 1184.2L5200 1179L5200 1441L5076.2 1441C4952.3 1441 4704.7 1441 4457 1441C4209.3 1441 3961.7 1441 3714 1441C3466.3 1441 3218.7 1441 2971.2 1441C2723.7 1441 2476.3 1441 2228.8 1441C1981.3 1441 1733.7 1441 1486 1441C1238.3 1441 990.7 1441 743 1441C495.3 1441 247.7 1441 123.8 1441L0 1441Z"
        fill="#002e51"></path>
    <path
        d="M0 1305L123.8 1307.3C247.7 1309.7 495.3 1314.3 743 1323.7C990.7 1333 1238.3 1347 1486 1340C1733.7 1333 1981.3 1305 2228.8 1303C2476.3 1301 2723.7 1325 2971.2 1339C3218.7 1353 3466.3 1357 3714 1361.3C3961.7 1365.7 4209.3 1370.3 4457 1368C4704.7 1365.7 4952.3 1356.3 5076.2 1351.7L5200 1347L5200 1441L5076.2 1441C4952.3 1441 4704.7 1441 4457 1441C4209.3 1441 3961.7 1441 3714 1441C3466.3 1441 3218.7 1441 2971.2 1441C2723.7 1441 2476.3 1441 2228.8 1441C1981.3 1441 1733.7 1441 1486 1441C1238.3 1441 990.7 1441 743 1441C495.3 1441 247.7 1441 123.8 1441L0 1441Z"
        fill="#003762"></path>
</svg>