<svg id="visual" viewBox="0 0 1920 600"
    width="1920" height="600"
    xmlns="http://www.w3.org/2000/svg"
    xmlns:xlink="http://www.w3.org/1999/xlink"
    version="1.1">
    <path
        d="M0 193L45.7 187.2C91.3 181.3 182.7 169.7 274.2 158.5C365.7 147.3 457.3 136.7 548.8 141.8C640.3 147 731.7 168 823 178.7C914.3 189.3 1005.7 189.7 1097 184.5C1188.3 179.3 1279.7 168.7 1371.2 159.7C1462.7 150.7 1554.3 143.3 1645.8 148.8C1737.3 154.3 1828.7 172.7 1874.3 181.8L1920 191L1920 0L1874.3 0C1828.7 0 1737.3 0 1645.8 0C1554.3 0 1462.7 0 1371.2 0C1279.7 0 1188.3 0 1097 0C1005.7 0 914.3 0 823 0C731.7 0 640.3 0 548.8 0C457.3 0 365.7 0 274.2 0C182.7 0 91.3 0 45.7 0L0 0Z"
        fill="#663399"></path>
    <path
        d="M0 147L45.7 148C91.3 149 182.7 151 274.2 147.7C365.7 144.3 457.3 135.7 548.8 129.3C640.3 123 731.7 119 823 114.7C914.3 110.3 1005.7 105.7 1097 103.2C1188.3 100.7 1279.7 100.3 1371.2 107.7C1462.7 115 1554.3 130 1645.8 132.2C1737.3 134.3 1828.7 123.7 1874.3 118.3L1920 113L1920 0L1874.3 0C1828.7 0 1737.3 0 1645.8 0C1554.3 0 1462.7 0 1371.2 0C1279.7 0 1188.3 0 1097 0C1005.7 0 914.3 0 823 0C731.7 0 640.3 0 548.8 0C457.3 0 365.7 0 274.2 0C182.7 0 91.3 0 45.7 0L0 0Z"
        fill="#8458ae"></path>
    <path
        d="M0 124L45.7 124.5C91.3 125 182.7 126 274.2 118.8C365.7 111.7 457.3 96.3 548.8 87.3C640.3 78.3 731.7 75.7 823 76.3C914.3 77 1005.7 81 1097 86.2C1188.3 91.3 1279.7 97.7 1371.2 104.7C1462.7 111.7 1554.3 119.3 1645.8 114.7C1737.3 110 1828.7 93 1874.3 84.5L1920 76L1920 0L1874.3 0C1828.7 0 1737.3 0 1645.8 0C1554.3 0 1462.7 0 1371.2 0C1279.7 0 1188.3 0 1097 0C1005.7 0 914.3 0 823 0C731.7 0 640.3 0 548.8 0C457.3 0 365.7 0 274.2 0C182.7 0 91.3 0 45.7 0L0 0Z"
        fill="#a17dc3"></path>
    <path
        d="M0 65L45.7 66.2C91.3 67.3 182.7 69.7 274.2 70.8C365.7 72 457.3 72 548.8 71.2C640.3 70.3 731.7 68.7 823 64C914.3 59.3 1005.7 51.7 1097 55C1188.3 58.3 1279.7 72.7 1371.2 77.3C1462.7 82 1554.3 77 1645.8 75.8C1737.3 74.7 1828.7 77.3 1874.3 78.7L1920 80L1920 0L1874.3 0C1828.7 0 1737.3 0 1645.8 0C1554.3 0 1462.7 0 1371.2 0C1279.7 0 1188.3 0 1097 0C1005.7 0 914.3 0 823 0C731.7 0 640.3 0 548.8 0C457.3 0 365.7 0 274.2 0C182.7 0 91.3 0 45.7 0L0 0Z"
        fill="#bea3d8"></path>
    <path
        d="M0 55L45.7 49.8C91.3 44.7 182.7 34.3 274.2 29.7C365.7 25 457.3 26 548.8 31.3C640.3 36.7 731.7 46.3 823 50.5C914.3 54.7 1005.7 53.3 1097 47.2C1188.3 41 1279.7 30 1371.2 27C1462.7 24 1554.3 29 1645.8 29.5C1737.3 30 1828.7 26 1874.3 24L1920 22L1920 0L1874.3 0C1828.7 0 1737.3 0 1645.8 0C1554.3 0 1462.7 0 1371.2 0C1279.7 0 1188.3 0 1097 0C1005.7 0 914.3 0 823 0C731.7 0 640.3 0 548.8 0C457.3 0 365.7 0 274.2 0C182.7 0 91.3 0 45.7 0L0 0Z"
        fill="#dccaed"></path>
</svg>