<svg id="visual" viewBox="0 0 3600 600"
    width="3600" height="600"
    xmlns="http://www.w3.org/2000/svg"
    xmlns:xlink="http://www.w3.org/1999/xlink"
    version="1.1">
    <path
        d="M0 467L54.5 462.7C109 458.3 218 449.7 327.2 444.7C436.3 439.7 545.7 438.3 654.8 446.5C764 454.7 873 472.3 982 479.2C1091 486 1200 482 1309 474.7C1418 467.3 1527 456.7 1636.2 442.2C1745.3 427.7 1854.7 409.3 1963.8 410.7C2073 412 2182 433 2291 432.5C2400 432 2509 410 2618 410C2727 410 2836 432 2945.2 437.7C3054.3 443.3 3163.7 432.7 3272.8 434.7C3382 436.7 3491 451.3 3545.5 458.7L3600 466L3600 601L3545.5 601C3491 601 3382 601 3272.8 601C3163.7 601 3054.3 601 2945.2 601C2836 601 2727 601 2618 601C2509 601 2400 601 2291 601C2182 601 2073 601 1963.8 601C1854.7 601 1745.3 601 1636.2 601C1527 601 1418 601 1309 601C1200 601 1091 601 982 601C873 601 764 601 654.8 601C545.7 601 436.3 601 327.2 601C218 601 109 601 54.5 601L0 601Z"
        fill="#001220"></path>
    <path
        d="M0 493L54.5 479.8C109 466.7 218 440.3 327.2 429C436.3 417.7 545.7 421.3 654.8 430.8C764 440.3 873 455.7 982 464C1091 472.3 1200 473.7 1309 478.2C1418 482.7 1527 490.3 1636.2 486.3C1745.3 482.3 1854.7 466.7 1963.8 455.5C2073 444.3 2182 437.7 2291 442.8C2400 448 2509 465 2618 476.5C2727 488 2836 494 2945.2 488C3054.3 482 3163.7 464 3272.8 462.3C3382 460.7 3491 475.3 3545.5 482.7L3600 490L3600 601L3545.5 601C3491 601 3382 601 3272.8 601C3163.7 601 3054.3 601 2945.2 601C2836 601 2727 601 2618 601C2509 601 2400 601 2291 601C2182 601 2073 601 1963.8 601C1854.7 601 1745.3 601 1636.2 601C1527 601 1418 601 1309 601C1200 601 1091 601 982 601C873 601 764 601 654.8 601C545.7 601 436.3 601 327.2 601C218 601 109 601 54.5 601L0 601Z"
        fill="#021a2c"></path>
    <path
        d="M0 491L54.5 485.3C109 479.7 218 468.3 327.2 459.8C436.3 451.3 545.7 445.7 654.8 450.8C764 456 873 472 982 481.7C1091 491.3 1200 494.7 1309 500.2C1418 505.7 1527 513.3 1636.2 504.5C1745.3 495.7 1854.7 470.3 1963.8 456.8C2073 443.3 2182 441.7 2291 443.7C2400 445.7 2509 451.3 2618 456.5C2727 461.7 2836 466.3 2945.2 472.7C3054.3 479 3163.7 487 3272.8 493.3C3382 499.7 3491 504.3 3545.5 506.7L3600 509L3600 601L3545.5 601C3491 601 3382 601 3272.8 601C3163.7 601 3054.3 601 2945.2 601C2836 601 2727 601 2618 601C2509 601 2400 601 2291 601C2182 601 2073 601 1963.8 601C1854.7 601 1745.3 601 1636.2 601C1527 601 1418 601 1309 601C1200 601 1091 601 982 601C873 601 764 601 654.8 601C545.7 601 436.3 601 327.2 601C218 601 109 601 54.5 601L0 601Z"
        fill="#012139"></path>
    <path
        d="M0 525L54.5 522.2C109 519.3 218 513.7 327.2 511.8C436.3 510 545.7 512 654.8 509.3C764 506.7 873 499.3 982 500.3C1091 501.3 1200 510.7 1309 507.2C1418 503.7 1527 487.3 1636.2 488.8C1745.3 490.3 1854.7 509.7 1963.8 517.3C2073 525 2182 521 2291 517.2C2400 513.3 2509 509.7 2618 505.5C2727 501.3 2836 496.7 2945.2 494.2C3054.3 491.7 3163.7 491.3 3272.8 488.3C3382 485.3 3491 479.7 3545.5 476.8L3600 474L3600 601L3545.5 601C3491 601 3382 601 3272.8 601C3163.7 601 3054.3 601 2945.2 601C2836 601 2727 601 2618 601C2509 601 2400 601 2291 601C2182 601 2073 601 1963.8 601C1854.7 601 1745.3 601 1636.2 601C1527 601 1418 601 1309 601C1200 601 1091 601 982 601C873 601 764 601 654.8 601C545.7 601 436.3 601 327.2 601C218 601 109 601 54.5 601L0 601Z"
        fill="#002947"></path>
    <path
        d="M0 516L54.5 519C109 522 218 528 327.2 527.3C436.3 526.7 545.7 519.3 654.8 522.8C764 526.3 873 540.7 982 539.7C1091 538.7 1200 522.3 1309 520.3C1418 518.3 1527 530.7 1636.2 539C1745.3 547.3 1854.7 551.7 1963.8 545.3C2073 539 2182 522 2291 515.3C2400 508.7 2509 512.3 2618 520.8C2727 529.3 2836 542.7 2945.2 540.2C3054.3 537.7 3163.7 519.3 3272.8 519.7C3382 520 3491 539 3545.5 548.5L3600 558L3600 601L3545.5 601C3491 601 3382 601 3272.8 601C3163.7 601 3054.3 601 2945.2 601C2836 601 2727 601 2618 601C2509 601 2400 601 2291 601C2182 601 2073 601 1963.8 601C1854.7 601 1745.3 601 1636.2 601C1527 601 1418 601 1309 601C1200 601 1091 601 982 601C873 601 764 601 654.8 601C545.7 601 436.3 601 327.2 601C218 601 109 601 54.5 601L0 601Z"
        fill="#003054"></path>
    <path
        d="M0 553L54.5 550.5C109 548 218 543 327.2 543C436.3 543 545.7 548 654.8 553.3C764 558.7 873 564.3 982 562C1091 559.7 1200 549.3 1309 548.3C1418 547.3 1527 555.7 1636.2 557.8C1745.3 560 1854.7 556 1963.8 556.8C2073 557.7 2182 563.3 2291 561.7C2400 560 2509 551 2618 552.3C2727 553.7 2836 565.3 2945.2 568.5C3054.3 571.7 3163.7 566.3 3272.8 564.8C3382 563.3 3491 565.7 3545.5 566.8L3600 568L3600 601L3545.5 601C3491 601 3382 601 3272.8 601C3163.7 601 3054.3 601 2945.2 601C2836 601 2727 601 2618 601C2509 601 2400 601 2291 601C2182 601 2073 601 1963.8 601C1854.7 601 1745.3 601 1636.2 601C1527 601 1418 601 1309 601C1200 601 1091 601 982 601C873 601 764 601 654.8 601C545.7 601 436.3 601 327.2 601C218 601 109 601 54.5 601L0 601Z"
        fill="#003762"></path>
</svg>