<svg id="visual" viewBox="0 0 3800 600"
    width="3800" height="600"
    xmlns="http://www.w3.org/2000/svg"
    xmlns:xlink="http://www.w3.org/1999/xlink"
    version="1.1">
    <rect x="0" y="0" width="3800" height="600"
        fill="#001220"></rect>
    <path
        d="M0 216L27.5 218.7C55 221.3 110 226.7 165 218.7C220 210.7 275 189.3 330.2 186C385.3 182.7 440.7 197.3 495.8 209.5C551 221.7 606 231.3 661 231C716 230.7 771 220.3 826 220.2C881 220 936 230 991.2 235C1046.3 240 1101.7 240 1156.8 241.5C1212 243 1267 246 1322 245C1377 244 1432 239 1487 231.8C1542 224.7 1597 215.3 1652 215.2C1707 215 1762 224 1817.2 219.5C1872.3 215 1927.7 197 1982.8 201.3C2038 205.7 2093 232.3 2148 242.7C2203 253 2258 247 2313 242.2C2368 237.3 2423 233.7 2478 217C2533 200.3 2588 170.7 2643.2 174.5C2698.3 178.3 2753.7 215.7 2808.8 226.8C2864 238 2919 223 2974 211.8C3029 200.7 3084 193.3 3139 199.2C3194 205 3249 224 3304.2 227.7C3359.3 231.3 3414.7 219.7 3469.8 202.5C3525 185.3 3580 162.7 3635 163.5C3690 164.3 3745 188.7 3772.5 200.8L3800 213L3800 0L3772.5 0C3745 0 3690 0 3635 0C3580 0 3525 0 3469.8 0C3414.7 0 3359.3 0 3304.2 0C3249 0 3194 0 3139 0C3084 0 3029 0 2974 0C2919 0 2864 0 2808.8 0C2753.7 0 2698.3 0 2643.2 0C2588 0 2533 0 2478 0C2423 0 2368 0 2313 0C2258 0 2203 0 2148 0C2093 0 2038 0 1982.8 0C1927.7 0 1872.3 0 1817.2 0C1762 0 1707 0 1652 0C1597 0 1542 0 1487 0C1432 0 1377 0 1322 0C1267 0 1212 0 1156.8 0C1101.7 0 1046.3 0 991.2 0C936 0 881 0 826 0C771 0 716 0 661 0C606 0 551 0 495.8 0C440.7 0 385.3 0 330.2 0C275 0 220 0 165 0C110 0 55 0 27.5 0L0 0Z"
        fill="#715df2"></path>
    <path
        d="M0 147L27.5 143.8C55 140.7 110 134.3 165 134C220 133.7 275 139.3 330.2 144.8C385.3 150.3 440.7 155.7 495.8 164.7C551 173.7 606 186.3 661 187.7C716 189 771 179 826 167C881 155 936 141 991.2 140C1046.3 139 1101.7 151 1156.8 152.7C1212 154.3 1267 145.7 1322 144C1377 142.3 1432 147.7 1487 150C1542 152.3 1597 151.7 1652 153.8C1707 156 1762 161 1817.2 170.2C1872.3 179.3 1927.7 192.7 1982.8 190.2C2038 187.7 2093 169.3 2148 159.3C2203 149.3 2258 147.7 2313 144.5C2368 141.3 2423 136.7 2478 142.3C2533 148 2588 164 2643.2 160.8C2698.3 157.7 2753.7 135.3 2808.8 125.7C2864 116 2919 119 2974 135.8C3029 152.7 3084 183.3 3139 196.3C3194 209.3 3249 204.7 3304.2 202.8C3359.3 201 3414.7 202 3469.8 193C3525 184 3580 165 3635 163.8C3690 162.7 3745 179.3 3772.5 187.7L3800 196L3800 0L3772.5 0C3745 0 3690 0 3635 0C3580 0 3525 0 3469.8 0C3414.7 0 3359.3 0 3304.2 0C3249 0 3194 0 3139 0C3084 0 3029 0 2974 0C2919 0 2864 0 2808.8 0C2753.7 0 2698.3 0 2643.2 0C2588 0 2533 0 2478 0C2423 0 2368 0 2313 0C2258 0 2203 0 2148 0C2093 0 2038 0 1982.8 0C1927.7 0 1872.3 0 1817.2 0C1762 0 1707 0 1652 0C1597 0 1542 0 1487 0C1432 0 1377 0 1322 0C1267 0 1212 0 1156.8 0C1101.7 0 1046.3 0 991.2 0C936 0 881 0 826 0C771 0 716 0 661 0C606 0 551 0 495.8 0C440.7 0 385.3 0 330.2 0C275 0 220 0 165 0C110 0 55 0 27.5 0L0 0Z"
        fill="#5576fb"></path>
    <path
        d="M0 136L27.5 135.3C55 134.7 110 133.3 165 132C220 130.7 275 129.3 330.2 132.3C385.3 135.3 440.7 142.7 495.8 145.5C551 148.3 606 146.7 661 139.3C716 132 771 119 826 110C881 101 936 96 991.2 93.2C1046.3 90.3 1101.7 89.7 1156.8 95.3C1212 101 1267 113 1322 112C1377 111 1432 97 1487 89.8C1542 82.7 1597 82.3 1652 92.3C1707 102.3 1762 122.7 1817.2 123.5C1872.3 124.3 1927.7 105.7 1982.8 95.5C2038 85.3 2093 83.7 2148 94.2C2203 104.7 2258 127.3 2313 126.8C2368 126.3 2423 102.7 2478 99.3C2533 96 2588 113 2643.2 125.5C2698.3 138 2753.7 146 2808.8 147C2864 148 2919 142 2974 139.5C3029 137 3084 138 3139 135C3194 132 3249 125 3304.2 119.7C3359.3 114.3 3414.7 110.7 3469.8 116.5C3525 122.3 3580 137.7 3635 136.3C3690 135 3745 117 3772.5 108L3800 99L3800 0L3772.5 0C3745 0 3690 0 3635 0C3580 0 3525 0 3469.8 0C3414.7 0 3359.3 0 3304.2 0C3249 0 3194 0 3139 0C3084 0 3029 0 2974 0C2919 0 2864 0 2808.8 0C2753.7 0 2698.3 0 2643.2 0C2588 0 2533 0 2478 0C2423 0 2368 0 2313 0C2258 0 2203 0 2148 0C2093 0 2038 0 1982.8 0C1927.7 0 1872.3 0 1817.2 0C1762 0 1707 0 1652 0C1597 0 1542 0 1487 0C1432 0 1377 0 1322 0C1267 0 1212 0 1156.8 0C1101.7 0 1046.3 0 991.2 0C936 0 881 0 826 0C771 0 716 0 661 0C606 0 551 0 495.8 0C440.7 0 385.3 0 330.2 0C275 0 220 0 165 0C110 0 55 0 27.5 0L0 0Z"
        fill="#408bfe"></path>
    <path
        d="M0 112L27.5 113.2C55 114.3 110 116.7 165 117C220 117.3 275 115.7 330.2 116.5C385.3 117.3 440.7 120.7 495.8 114.5C551 108.3 606 92.7 661 92.3C716 92 771 107 826 105.2C881 103.3 936 84.7 991.2 81.5C1046.3 78.3 1101.7 90.7 1156.8 95.5C1212 100.3 1267 97.7 1322 98.2C1377 98.7 1432 102.3 1487 95.7C1542 89 1597 72 1652 71.2C1707 70.3 1762 85.7 1817.2 91C1872.3 96.3 1927.7 91.7 1982.8 94C2038 96.3 2093 105.7 2148 109.5C2203 113.3 2258 111.7 2313 108.2C2368 104.7 2423 99.3 2478 100C2533 100.7 2588 107.3 2643.2 106.3C2698.3 105.3 2753.7 96.7 2808.8 95.3C2864 94 2919 100 2974 94.2C3029 88.3 3084 70.7 3139 71.5C3194 72.3 3249 91.7 3304.2 97C3359.3 102.3 3414.7 93.7 3469.8 84.5C3525 75.3 3580 65.7 3635 68C3690 70.3 3745 84.7 3772.5 91.8L3800 99L3800 0L3772.5 0C3745 0 3690 0 3635 0C3580 0 3525 0 3469.8 0C3414.7 0 3359.3 0 3304.2 0C3249 0 3194 0 3139 0C3084 0 3029 0 2974 0C2919 0 2864 0 2808.8 0C2753.7 0 2698.3 0 2643.2 0C2588 0 2533 0 2478 0C2423 0 2368 0 2313 0C2258 0 2203 0 2148 0C2093 0 2038 0 1982.8 0C1927.7 0 1872.3 0 1817.2 0C1762 0 1707 0 1652 0C1597 0 1542 0 1487 0C1432 0 1377 0 1322 0C1267 0 1212 0 1156.8 0C1101.7 0 1046.3 0 991.2 0C936 0 881 0 826 0C771 0 716 0 661 0C606 0 551 0 495.8 0C440.7 0 385.3 0 330.2 0C275 0 220 0 165 0C110 0 55 0 27.5 0L0 0Z"
        fill="#3d9dfc"></path>
    <path
        d="M0 73L27.5 64.7C55 56.3 110 39.7 165 38C220 36.3 275 49.7 330.2 53.2C385.3 56.7 440.7 50.3 495.8 50C551 49.7 606 55.3 661 55.8C716 56.3 771 51.7 826 53.3C881 55 936 63 991.2 62.7C1046.3 62.3 1101.7 53.7 1156.8 45.7C1212 37.7 1267 30.3 1322 35.2C1377 40 1432 57 1487 57.2C1542 57.3 1597 40.7 1652 41.5C1707 42.3 1762 60.7 1817.2 64.7C1872.3 68.7 1927.7 58.3 1982.8 48.5C2038 38.7 2093 29.3 2148 26.7C2203 24 2258 28 2313 34C2368 40 2423 48 2478 52C2533 56 2588 56 2643.2 57.5C2698.3 59 2753.7 62 2808.8 61.5C2864 61 2919 57 2974 52.2C3029 47.3 3084 41.7 3139 45C3194 48.3 3249 60.7 3304.2 66.2C3359.3 71.7 3414.7 70.3 3469.8 68.5C3525 66.7 3580 64.3 3635 59.5C3690 54.7 3745 47.3 3772.5 43.7L3800 40L3800 0L3772.5 0C3745 0 3690 0 3635 0C3580 0 3525 0 3469.8 0C3414.7 0 3359.3 0 3304.2 0C3249 0 3194 0 3139 0C3084 0 3029 0 2974 0C2919 0 2864 0 2808.8 0C2753.7 0 2698.3 0 2643.2 0C2588 0 2533 0 2478 0C2423 0 2368 0 2313 0C2258 0 2203 0 2148 0C2093 0 2038 0 1982.8 0C1927.7 0 1872.3 0 1817.2 0C1762 0 1707 0 1652 0C1597 0 1542 0 1487 0C1432 0 1377 0 1322 0C1267 0 1212 0 1156.8 0C1101.7 0 1046.3 0 991.2 0C936 0 881 0 826 0C771 0 716 0 661 0C606 0 551 0 495.8 0C440.7 0 385.3 0 330.2 0C275 0 220 0 165 0C110 0 55 0 27.5 0L0 0Z"
        fill="#4facf7"></path>
</svg>