<svg id="visual" viewBox="0 0 1920 600" width="1920" height="600" xmlns="http://www.w3.org/2000/svg" xmlns:xlink="http://www.w3.org/1999/xlink" version="1.1"><path d="M0 412L29.2 419.2C58.3 426.3 116.7 440.7 174.8 441C233 441.3 291 427.7 349.2 431.5C407.3 435.3 465.7 456.7 523.8 457.8C582 459 640 440 698.2 428.7C756.3 417.3 814.7 413.7 872.8 413.3C931 413 989 416 1047.2 414.3C1105.3 412.7 1163.7 406.3 1221.8 405.2C1280 404 1338 408 1396.2 415C1454.3 422 1512.7 432 1570.8 442C1629 452 1687 462 1745.2 458.7C1803.3 455.3 1861.7 438.7 1890.8 430.3L1920 422L1920 601L1890.8 601C1861.7 601 1803.3 601 1745.2 601C1687 601 1629 601 1570.8 601C1512.7 601 1454.3 601 1396.2 601C1338 601 1280 601 1221.8 601C1163.7 601 1105.3 601 1047.2 601C989 601 931 601 872.8 601C814.7 601 756.3 601 698.2 601C640 601 582 601 523.8 601C465.7 601 407.3 601 349.2 601C291 601 233 601 174.8 601C116.7 601 58.3 601 29.2 601L0 601Z" fill="#dccaed"></path><path d="M0 487L29.2 480.7C58.3 474.3 116.7 461.7 174.8 455.2C233 448.7 291 448.3 349.2 455.7C407.3 463 465.7 478 523.8 483.8C582 489.7 640 486.3 698.2 478.2C756.3 470 814.7 457 872.8 458.3C931 459.7 989 475.3 1047.2 480C1105.3 484.7 1163.7 478.3 1221.8 472.3C1280 466.3 1338 460.7 1396.2 456.8C1454.3 453 1512.7 451 1570.8 449C1629 447 1687 445 1745.2 445.3C1803.3 445.7 1861.7 448.3 1890.8 449.7L1920 451L1920 601L1890.8 601C1861.7 601 1803.3 601 1745.2 601C1687 601 1629 601 1570.8 601C1512.7 601 1454.3 601 1396.2 601C1338 601 1280 601 1221.8 601C1163.7 601 1105.3 601 1047.2 601C989 601 931 601 872.8 601C814.7 601 756.3 601 698.2 601C640 601 582 601 523.8 601C465.7 601 407.3 601 349.2 601C291 601 233 601 174.8 601C116.7 601 58.3 601 29.2 601L0 601Z" fill="#bea3d8"></path><path d="M0 522L29.2 514C58.3 506 116.7 490 174.8 486.7C233 483.3 291 492.7 349.2 495.5C407.3 498.3 465.7 494.7 523.8 496.8C582 499 640 507 698.2 505.2C756.3 503.3 814.7 491.7 872.8 488.8C931 486 989 492 1047.2 497.5C1105.3 503 1163.7 508 1221.8 512.7C1280 517.3 1338 521.7 1396.2 522C1454.3 522.3 1512.7 518.7 1570.8 512.5C1629 506.3 1687 497.7 1745.2 499.7C1803.3 501.7 1861.7 514.3 1890.8 520.7L1920 527L1920 601L1890.8 601C1861.7 601 1803.3 601 1745.2 601C1687 601 1629 601 1570.8 601C1512.7 601 1454.3 601 1396.2 601C1338 601 1280 601 1221.8 601C1163.7 601 1105.3 601 1047.2 601C989 601 931 601 872.8 601C814.7 601 756.3 601 698.2 601C640 601 582 601 523.8 601C465.7 601 407.3 601 349.2 601C291 601 233 601 174.8 601C116.7 601 58.3 601 29.2 601L0 601Z" fill="#a17dc3"></path><path d="M0 517L29.2 517.2C58.3 517.3 116.7 517.7 174.8 518.7C233 519.7 291 521.3 349.2 524.5C407.3 527.7 465.7 532.3 523.8 536C582 539.7 640 542.3 698.2 543.3C756.3 544.3 814.7 543.7 872.8 540.8C931 538 989 533 1047.2 530.5C1105.3 528 1163.7 528 1221.8 529.5C1280 531 1338 534 1396.2 533.3C1454.3 532.7 1512.7 528.3 1570.8 524.5C1629 520.7 1687 517.3 1745.2 514.7C1803.3 512 1861.7 510 1890.8 509L1920 508L1920 601L1890.8 601C1861.7 601 1803.3 601 1745.2 601C1687 601 1629 601 1570.8 601C1512.7 601 1454.3 601 1396.2 601C1338 601 1280 601 1221.8 601C1163.7 601 1105.3 601 1047.2 601C989 601 931 601 872.8 601C814.7 601 756.3 601 698.2 601C640 601 582 601 523.8 601C465.7 601 407.3 601 349.2 601C291 601 233 601 174.8 601C116.7 601 58.3 601 29.2 601L0 601Z" fill="#8458ae"></path><path d="M0 564L29.2 566.3C58.3 568.7 116.7 573.3 174.8 574.8C233 576.3 291 574.7 349.2 574C407.3 573.3 465.7 573.7 523.8 571.7C582 569.7 640 565.3 698.2 562C756.3 558.7 814.7 556.3 872.8 558C931 559.7 989 565.3 1047.2 568.5C1105.3 571.7 1163.7 572.3 1221.8 572C1280 571.7 1338 570.3 1396.2 570.2C1454.3 570 1512.7 571 1570.8 569.3C1629 567.7 1687 563.3 1745.2 563.7C1803.3 564 1861.7 569 1890.8 571.5L1920 574L1920 601L1890.8 601C1861.7 601 1803.3 601 1745.2 601C1687 601 1629 601 1570.8 601C1512.7 601 1454.3 601 1396.2 601C1338 601 1280 601 1221.8 601C1163.7 601 1105.3 601 1047.2 601C989 601 931 601 872.8 601C814.7 601 756.3 601 698.2 601C640 601 582 601 523.8 601C465.7 601 407.3 601 349.2 601C291 601 233 601 174.8 601C116.7 601 58.3 601 29.2 601L0 601Z" fill="#663399"></path></svg>