<svg id="visual" viewBox="0 0 1920 600" width="1920" height="600" xmlns="http://www.w3.org/2000/svg" xmlns:xlink="http://www.w3.org/1999/xlink" version="1.1"><path d="M0 186L29.2 178.8C58.3 171.7 116.7 157.3 174.8 157C233 156.7 291 170.3 349.2 166.5C407.3 162.7 465.7 141.3 523.8 140.2C582 139 640 158 698.2 169.3C756.3 180.7 814.7 184.3 872.8 184.7C931 185 989 182 1047.2 183.7C1105.3 185.3 1163.7 191.7 1221.8 192.8C1280 194 1338 190 1396.2 183C1454.3 176 1512.7 166 1570.8 156C1629 146 1687 136 1745.2 139.3C1803.3 142.7 1861.7 159.3 1890.8 167.7L1920 176L1920 0L1890.8 0C1861.7 0 1803.3 0 1745.2 0C1687 0 1629 0 1570.8 0C1512.7 0 1454.3 0 1396.2 0C1338 0 1280 0 1221.8 0C1163.7 0 1105.3 0 1047.2 0C989 0 931 0 872.8 0C814.7 0 756.3 0 698.2 0C640 0 582 0 523.8 0C465.7 0 407.3 0 349.2 0C291 0 233 0 174.8 0C116.7 0 58.3 0 29.2 0L0 0Z" fill="#dccaed"></path><path d="M0 111L29.2 117.3C58.3 123.7 116.7 136.3 174.8 142.8C233 149.3 291 149.7 349.2 142.3C407.3 135 465.7 120 523.8 114.2C582 108.3 640 111.7 698.2 119.8C756.3 128 814.7 141 872.8 139.7C931 138.3 989 122.7 1047.2 118C1105.3 113.3 1163.7 119.7 1221.8 125.7C1280 131.7 1338 137.3 1396.2 141.2C1454.3 145 1512.7 147 1570.8 149C1629 151 1687 153 1745.2 152.7C1803.3 152.3 1861.7 149.7 1890.8 148.3L1920 147L1920 0L1890.8 0C1861.7 0 1803.3 0 1745.2 0C1687 0 1629 0 1570.8 0C1512.7 0 1454.3 0 1396.2 0C1338 0 1280 0 1221.8 0C1163.7 0 1105.3 0 1047.2 0C989 0 931 0 872.8 0C814.7 0 756.3 0 698.2 0C640 0 582 0 523.8 0C465.7 0 407.3 0 349.2 0C291 0 233 0 174.8 0C116.7 0 58.3 0 29.2 0L0 0Z" fill="#bea3d8"></path><path d="M0 76L29.2 84C58.3 92 116.7 108 174.8 111.3C233 114.7 291 105.3 349.2 102.5C407.3 99.7 465.7 103.3 523.8 101.2C582 99 640 91 698.2 92.8C756.3 94.7 814.7 106.3 872.8 109.2C931 112 989 106 1047.2 100.5C1105.3 95 1163.7 90 1221.8 85.3C1280 80.7 1338 76.3 1396.2 76C1454.3 75.7 1512.7 79.3 1570.8 85.5C1629 91.7 1687 100.3 1745.2 98.3C1803.3 96.3 1861.7 83.7 1890.8 77.3L1920 71L1920 0L1890.8 0C1861.7 0 1803.3 0 1745.2 0C1687 0 1629 0 1570.8 0C1512.7 0 1454.3 0 1396.2 0C1338 0 1280 0 1221.8 0C1163.7 0 1105.3 0 1047.2 0C989 0 931 0 872.8 0C814.7 0 756.3 0 698.2 0C640 0 582 0 523.8 0C465.7 0 407.3 0 349.2 0C291 0 233 0 174.8 0C116.7 0 58.3 0 29.2 0L0 0Z" fill="#a17dc3"></path><path d="M0 81L29.2 80.8C58.3 80.7 116.7 80.3 174.8 79.3C233 78.3 291 76.7 349.2 73.5C407.3 70.3 465.7 65.7 523.8 62C582 58.3 640 55.7 698.2 54.7C756.3 53.7 814.7 54.3 872.8 57.2C931 60 989 65 1047.2 67.5C1105.3 70 1163.7 70 1221.8 68.5C1280 67 1338 64 1396.2 64.7C1454.3 65.3 1512.7 69.7 1570.8 73.5C1629 77.3 1687 80.7 1745.2 83.3C1803.3 86 1861.7 88 1890.8 89L1920 90L1920 0L1890.8 0C1861.7 0 1803.3 0 1745.2 0C1687 0 1629 0 1570.8 0C1512.7 0 1454.3 0 1396.2 0C1338 0 1280 0 1221.8 0C1163.7 0 1105.3 0 1047.2 0C989 0 931 0 872.8 0C814.7 0 756.3 0 698.2 0C640 0 582 0 523.8 0C465.7 0 407.3 0 349.2 0C291 0 233 0 174.8 0C116.7 0 58.3 0 29.2 0L0 0Z" fill="#8458ae"></path><path d="M0 34L29.2 31.7C58.3 29.3 116.7 24.7 174.8 23.2C233 21.7 291 23.3 349.2 24C407.3 24.7 465.7 24.3 523.8 26.3C582 28.3 640 32.7 698.2 36C756.3 39.3 814.7 41.7 872.8 40C931 38.3 989 32.7 1047.2 29.5C1105.3 26.3 1163.7 25.7 1221.8 26C1280 26.3 1338 27.7 1396.2 27.8C1454.3 28 1512.7 27 1570.8 28.7C1629 30.3 1687 34.7 1745.2 34.3C1803.3 34 1861.7 29 1890.8 26.5L1920 24L1920 0L1890.8 0C1861.7 0 1803.3 0 1745.2 0C1687 0 1629 0 1570.8 0C1512.7 0 1454.3 0 1396.2 0C1338 0 1280 0 1221.8 0C1163.7 0 1105.3 0 1047.2 0C989 0 931 0 872.8 0C814.7 0 756.3 0 698.2 0C640 0 582 0 523.8 0C465.7 0 407.3 0 349.2 0C291 0 233 0 174.8 0C116.7 0 58.3 0 29.2 0L0 0Z" fill="#663399"></path></svg>