<svg id="visual" viewBox="0 0 3600 600" width="3600" height="600" xmlns="http://www.w3.org/2000/svg" xmlns:xlink="http://www.w3.org/1999/xlink" version="1.1"><path d="M0 131L54.5 135.3C109 139.7 218 148.3 327.2 153.3C436.3 158.3 545.7 159.7 654.8 151.5C764 143.3 873 125.7 982 118.8C1091 112 1200 116 1309 123.3C1418 130.7 1527 141.3 1636.2 155.8C1745.3 170.3 1854.7 188.7 1963.8 187.3C2073 186 2182 165 2291 165.5C2400 166 2509 188 2618 188C2727 188 2836 166 2945.2 160.3C3054.3 154.7 3163.7 165.3 3272.8 163.3C3382 161.3 3491 146.7 3545.5 139.3L3600 132L3600 0L3545.5 0C3491 0 3382 0 3272.8 0C3163.7 0 3054.3 0 2945.2 0C2836 0 2727 0 2618 0C2509 0 2400 0 2291 0C2182 0 2073 0 1963.8 0C1854.7 0 1745.3 0 1636.2 0C1527 0 1418 0 1309 0C1200 0 1091 0 982 0C873 0 764 0 654.8 0C545.7 0 436.3 0 327.2 0C218 0 109 0 54.5 0L0 0Z" fill="#001220"></path><path d="M0 105L54.5 118.2C109 131.3 218 157.7 327.2 169C436.3 180.3 545.7 176.7 654.8 167.2C764 157.7 873 142.3 982 134C1091 125.7 1200 124.3 1309 119.8C1418 115.3 1527 107.7 1636.2 111.7C1745.3 115.7 1854.7 131.3 1963.8 142.5C2073 153.7 2182 160.3 2291 155.2C2400 150 2509 133 2618 121.5C2727 110 2836 104 2945.2 110C3054.3 116 3163.7 134 3272.8 135.7C3382 137.3 3491 122.7 3545.5 115.3L3600 108L3600 0L3545.5 0C3491 0 3382 0 3272.8 0C3163.7 0 3054.3 0 2945.2 0C2836 0 2727 0 2618 0C2509 0 2400 0 2291 0C2182 0 2073 0 1963.8 0C1854.7 0 1745.3 0 1636.2 0C1527 0 1418 0 1309 0C1200 0 1091 0 982 0C873 0 764 0 654.8 0C545.7 0 436.3 0 327.2 0C218 0 109 0 54.5 0L0 0Z" fill="#021a2c"></path><path d="M0 107L54.5 112.7C109 118.3 218 129.7 327.2 138.2C436.3 146.7 545.7 152.3 654.8 147.2C764 142 873 126 982 116.3C1091 106.7 1200 103.3 1309 97.8C1418 92.3 1527 84.7 1636.2 93.5C1745.3 102.3 1854.7 127.7 1963.8 141.2C2073 154.7 2182 156.3 2291 154.3C2400 152.3 2509 146.7 2618 141.5C2727 136.3 2836 131.7 2945.2 125.3C3054.3 119 3163.7 111 3272.8 104.7C3382 98.3 3491 93.7 3545.5 91.3L3600 89L3600 0L3545.5 0C3491 0 3382 0 3272.8 0C3163.7 0 3054.3 0 2945.2 0C2836 0 2727 0 2618 0C2509 0 2400 0 2291 0C2182 0 2073 0 1963.8 0C1854.7 0 1745.3 0 1636.2 0C1527 0 1418 0 1309 0C1200 0 1091 0 982 0C873 0 764 0 654.8 0C545.7 0 436.3 0 327.2 0C218 0 109 0 54.5 0L0 0Z" fill="#012139"></path><path d="M0 73L54.5 75.8C109 78.7 218 84.3 327.2 86.2C436.3 88 545.7 86 654.8 88.7C764 91.3 873 98.7 982 97.7C1091 96.7 1200 87.3 1309 90.8C1418 94.3 1527 110.7 1636.2 109.2C1745.3 107.7 1854.7 88.3 1963.8 80.7C2073 73 2182 77 2291 80.8C2400 84.7 2509 88.3 2618 92.5C2727 96.7 2836 101.3 2945.2 103.8C3054.3 106.3 3163.7 106.7 3272.8 109.7C3382 112.7 3491 118.3 3545.5 121.2L3600 124L3600 0L3545.5 0C3491 0 3382 0 3272.8 0C3163.7 0 3054.3 0 2945.2 0C2836 0 2727 0 2618 0C2509 0 2400 0 2291 0C2182 0 2073 0 1963.8 0C1854.7 0 1745.3 0 1636.2 0C1527 0 1418 0 1309 0C1200 0 1091 0 982 0C873 0 764 0 654.8 0C545.7 0 436.3 0 327.2 0C218 0 109 0 54.5 0L0 0Z" fill="#002947"></path><path d="M0 82L54.5 79C109 76 218 70 327.2 70.7C436.3 71.3 545.7 78.7 654.8 75.2C764 71.7 873 57.3 982 58.3C1091 59.3 1200 75.7 1309 77.7C1418 79.7 1527 67.3 1636.2 59C1745.3 50.7 1854.7 46.3 1963.8 52.7C2073 59 2182 76 2291 82.7C2400 89.3 2509 85.7 2618 77.2C2727 68.7 2836 55.3 2945.2 57.8C3054.3 60.3 3163.7 78.7 3272.8 78.3C3382 78 3491 59 3545.5 49.5L3600 40L3600 0L3545.5 0C3491 0 3382 0 3272.8 0C3163.7 0 3054.3 0 2945.2 0C2836 0 2727 0 2618 0C2509 0 2400 0 2291 0C2182 0 2073 0 1963.8 0C1854.7 0 1745.3 0 1636.2 0C1527 0 1418 0 1309 0C1200 0 1091 0 982 0C873 0 764 0 654.8 0C545.7 0 436.3 0 327.2 0C218 0 109 0 54.5 0L0 0Z" fill="#003054"></path><path d="M0 45L54.5 47.5C109 50 218 55 327.2 55C436.3 55 545.7 50 654.8 44.7C764 39.3 873 33.7 982 36C1091 38.3 1200 48.7 1309 49.7C1418 50.7 1527 42.3 1636.2 40.2C1745.3 38 1854.7 42 1963.8 41.2C2073 40.3 2182 34.7 2291 36.3C2400 38 2509 47 2618 45.7C2727 44.3 2836 32.7 2945.2 29.5C3054.3 26.3 3163.7 31.7 3272.8 33.2C3382 34.7 3491 32.3 3545.5 31.2L3600 30L3600 0L3545.5 0C3491 0 3382 0 3272.8 0C3163.7 0 3054.3 0 2945.2 0C2836 0 2727 0 2618 0C2509 0 2400 0 2291 0C2182 0 2073 0 1963.8 0C1854.7 0 1745.3 0 1636.2 0C1527 0 1418 0 1309 0C1200 0 1091 0 982 0C873 0 764 0 654.8 0C545.7 0 436.3 0 327.2 0C218 0 109 0 54.5 0L0 0Z" fill="#003762"></path></svg>