<svg id="visual" viewBox="0 0 3800 600"
    width="3800" height="600"
    xmlns="http://www.w3.org/2000/svg"
    xmlns:xlink="http://www.w3.org/1999/xlink"
    version="1.1">
    <rect x="0" y="0" width="3800" height="600"
        fill="#001220"></rect>
    <path
        d="M0 382L27.5 379.3C55 376.7 110 371.3 165 379.3C220 387.3 275 408.7 330.2 412C385.3 415.3 440.7 400.7 495.8 388.5C551 376.3 606 366.7 661 367C716 367.3 771 377.7 826 377.8C881 378 936 368 991.2 363C1046.3 358 1101.7 358 1156.8 356.5C1212 355 1267 352 1322 353C1377 354 1432 359 1487 366.2C1542 373.3 1597 382.7 1652 382.8C1707 383 1762 374 1817.2 378.5C1872.3 383 1927.7 401 1982.8 396.7C2038 392.3 2093 365.7 2148 355.3C2203 345 2258 351 2313 355.8C2368 360.7 2423 364.3 2478 381C2533 397.7 2588 427.3 2643.2 423.5C2698.3 419.7 2753.7 382.3 2808.8 371.2C2864 360 2919 375 2974 386.2C3029 397.3 3084 404.7 3139 398.8C3194 393 3249 374 3304.2 370.3C3359.3 366.7 3414.7 378.3 3469.8 395.5C3525 412.7 3580 435.3 3635 434.5C3690 433.7 3745 409.3 3772.5 397.2L3800 385L3800 601L3772.5 601C3745 601 3690 601 3635 601C3580 601 3525 601 3469.8 601C3414.7 601 3359.3 601 3304.2 601C3249 601 3194 601 3139 601C3084 601 3029 601 2974 601C2919 601 2864 601 2808.8 601C2753.7 601 2698.3 601 2643.2 601C2588 601 2533 601 2478 601C2423 601 2368 601 2313 601C2258 601 2203 601 2148 601C2093 601 2038 601 1982.8 601C1927.7 601 1872.3 601 1817.2 601C1762 601 1707 601 1652 601C1597 601 1542 601 1487 601C1432 601 1377 601 1322 601C1267 601 1212 601 1156.8 601C1101.7 601 1046.3 601 991.2 601C936 601 881 601 826 601C771 601 716 601 661 601C606 601 551 601 495.8 601C440.7 601 385.3 601 330.2 601C275 601 220 601 165 601C110 601 55 601 27.5 601L0 601Z"
        fill="#715df2"></path>
    <path
        d="M0 451L27.5 454.2C55 457.3 110 463.7 165 464C220 464.3 275 458.7 330.2 453.2C385.3 447.7 440.7 442.3 495.8 433.3C551 424.3 606 411.7 661 410.3C716 409 771 419 826 431C881 443 936 457 991.2 458C1046.3 459 1101.7 447 1156.8 445.3C1212 443.7 1267 452.3 1322 454C1377 455.7 1432 450.3 1487 448C1542 445.7 1597 446.3 1652 444.2C1707 442 1762 437 1817.2 427.8C1872.3 418.7 1927.7 405.3 1982.8 407.8C2038 410.3 2093 428.7 2148 438.7C2203 448.7 2258 450.3 2313 453.5C2368 456.7 2423 461.3 2478 455.7C2533 450 2588 434 2643.2 437.2C2698.3 440.3 2753.7 462.7 2808.8 472.3C2864 482 2919 479 2974 462.2C3029 445.3 3084 414.7 3139 401.7C3194 388.7 3249 393.3 3304.2 395.2C3359.3 397 3414.7 396 3469.8 405C3525 414 3580 433 3635 434.2C3690 435.3 3745 418.7 3772.5 410.3L3800 402L3800 601L3772.5 601C3745 601 3690 601 3635 601C3580 601 3525 601 3469.8 601C3414.7 601 3359.3 601 3304.2 601C3249 601 3194 601 3139 601C3084 601 3029 601 2974 601C2919 601 2864 601 2808.8 601C2753.7 601 2698.3 601 2643.2 601C2588 601 2533 601 2478 601C2423 601 2368 601 2313 601C2258 601 2203 601 2148 601C2093 601 2038 601 1982.8 601C1927.7 601 1872.3 601 1817.2 601C1762 601 1707 601 1652 601C1597 601 1542 601 1487 601C1432 601 1377 601 1322 601C1267 601 1212 601 1156.8 601C1101.7 601 1046.3 601 991.2 601C936 601 881 601 826 601C771 601 716 601 661 601C606 601 551 601 495.8 601C440.7 601 385.3 601 330.2 601C275 601 220 601 165 601C110 601 55 601 27.5 601L0 601Z"
        fill="#5576fb"></path>
    <path
        d="M0 462L27.5 462.7C55 463.3 110 464.7 165 466C220 467.3 275 468.7 330.2 465.7C385.3 462.7 440.7 455.3 495.8 452.5C551 449.7 606 451.3 661 458.7C716 466 771 479 826 488C881 497 936 502 991.2 504.8C1046.3 507.7 1101.7 508.3 1156.8 502.7C1212 497 1267 485 1322 486C1377 487 1432 501 1487 508.2C1542 515.3 1597 515.7 1652 505.7C1707 495.7 1762 475.3 1817.2 474.5C1872.3 473.7 1927.7 492.3 1982.8 502.5C2038 512.7 2093 514.3 2148 503.8C2203 493.3 2258 470.7 2313 471.2C2368 471.7 2423 495.3 2478 498.7C2533 502 2588 485 2643.2 472.5C2698.3 460 2753.7 452 2808.8 451C2864 450 2919 456 2974 458.5C3029 461 3084 460 3139 463C3194 466 3249 473 3304.2 478.3C3359.3 483.7 3414.7 487.3 3469.8 481.5C3525 475.7 3580 460.3 3635 461.7C3690 463 3745 481 3772.5 490L3800 499L3800 601L3772.5 601C3745 601 3690 601 3635 601C3580 601 3525 601 3469.8 601C3414.7 601 3359.3 601 3304.2 601C3249 601 3194 601 3139 601C3084 601 3029 601 2974 601C2919 601 2864 601 2808.8 601C2753.7 601 2698.3 601 2643.2 601C2588 601 2533 601 2478 601C2423 601 2368 601 2313 601C2258 601 2203 601 2148 601C2093 601 2038 601 1982.8 601C1927.7 601 1872.3 601 1817.2 601C1762 601 1707 601 1652 601C1597 601 1542 601 1487 601C1432 601 1377 601 1322 601C1267 601 1212 601 1156.8 601C1101.7 601 1046.3 601 991.2 601C936 601 881 601 826 601C771 601 716 601 661 601C606 601 551 601 495.8 601C440.7 601 385.3 601 330.2 601C275 601 220 601 165 601C110 601 55 601 27.5 601L0 601Z"
        fill="#408bfe"></path>
    <path
        d="M0 486L27.5 484.8C55 483.7 110 481.3 165 481C220 480.7 275 482.3 330.2 481.5C385.3 480.7 440.7 477.3 495.8 483.5C551 489.7 606 505.3 661 505.7C716 506 771 491 826 492.8C881 494.7 936 513.3 991.2 516.5C1046.3 519.7 1101.7 507.3 1156.8 502.5C1212 497.7 1267 500.3 1322 499.8C1377 499.3 1432 495.7 1487 502.3C1542 509 1597 526 1652 526.8C1707 527.7 1762 512.3 1817.2 507C1872.3 501.7 1927.7 506.3 1982.8 504C2038 501.7 2093 492.3 2148 488.5C2203 484.7 2258 486.3 2313 489.8C2368 493.3 2423 498.7 2478 498C2533 497.3 2588 490.7 2643.2 491.7C2698.3 492.7 2753.7 501.3 2808.8 502.7C2864 504 2919 498 2974 503.8C3029 509.7 3084 527.3 3139 526.5C3194 525.7 3249 506.3 3304.2 501C3359.3 495.7 3414.7 504.3 3469.8 513.5C3525 522.7 3580 532.3 3635 530C3690 527.7 3745 513.3 3772.5 506.2L3800 499L3800 601L3772.5 601C3745 601 3690 601 3635 601C3580 601 3525 601 3469.8 601C3414.7 601 3359.3 601 3304.2 601C3249 601 3194 601 3139 601C3084 601 3029 601 2974 601C2919 601 2864 601 2808.8 601C2753.7 601 2698.3 601 2643.2 601C2588 601 2533 601 2478 601C2423 601 2368 601 2313 601C2258 601 2203 601 2148 601C2093 601 2038 601 1982.8 601C1927.7 601 1872.3 601 1817.2 601C1762 601 1707 601 1652 601C1597 601 1542 601 1487 601C1432 601 1377 601 1322 601C1267 601 1212 601 1156.8 601C1101.7 601 1046.3 601 991.2 601C936 601 881 601 826 601C771 601 716 601 661 601C606 601 551 601 495.8 601C440.7 601 385.3 601 330.2 601C275 601 220 601 165 601C110 601 55 601 27.5 601L0 601Z"
        fill="#3d9dfc"></path>
    <path
        d="M0 525L27.5 533.3C55 541.7 110 558.3 165 560C220 561.7 275 548.3 330.2 544.8C385.3 541.3 440.7 547.7 495.8 548C551 548.3 606 542.7 661 542.2C716 541.7 771 546.3 826 544.7C881 543 936 535 991.2 535.3C1046.3 535.7 1101.7 544.3 1156.8 552.3C1212 560.3 1267 567.7 1322 562.8C1377 558 1432 541 1487 540.8C1542 540.7 1597 557.3 1652 556.5C1707 555.7 1762 537.3 1817.2 533.3C1872.3 529.3 1927.7 539.7 1982.8 549.5C2038 559.3 2093 568.7 2148 571.3C2203 574 2258 570 2313 564C2368 558 2423 550 2478 546C2533 542 2588 542 2643.2 540.5C2698.3 539 2753.7 536 2808.8 536.5C2864 537 2919 541 2974 545.8C3029 550.7 3084 556.3 3139 553C3194 549.7 3249 537.3 3304.2 531.8C3359.3 526.3 3414.7 527.7 3469.8 529.5C3525 531.3 3580 533.7 3635 538.5C3690 543.3 3745 550.7 3772.5 554.3L3800 558L3800 601L3772.5 601C3745 601 3690 601 3635 601C3580 601 3525 601 3469.8 601C3414.7 601 3359.3 601 3304.2 601C3249 601 3194 601 3139 601C3084 601 3029 601 2974 601C2919 601 2864 601 2808.8 601C2753.7 601 2698.3 601 2643.2 601C2588 601 2533 601 2478 601C2423 601 2368 601 2313 601C2258 601 2203 601 2148 601C2093 601 2038 601 1982.8 601C1927.7 601 1872.3 601 1817.2 601C1762 601 1707 601 1652 601C1597 601 1542 601 1487 601C1432 601 1377 601 1322 601C1267 601 1212 601 1156.8 601C1101.7 601 1046.3 601 991.2 601C936 601 881 601 826 601C771 601 716 601 661 601C606 601 551 601 495.8 601C440.7 601 385.3 601 330.2 601C275 601 220 601 165 601C110 601 55 601 27.5 601L0 601Z"
        fill="#4facf7"></path>
</svg>