
<svg id="visual" viewBox="0 0 1920 600" width="1920" height="600" xmlns="http://www.w3.org/2000/svg" xmlns:xlink="http://www.w3.org/1999/xlink" version="1.1"><path d="M0 405L45.7 410.8C91.3 416.7 182.7 428.3 274.2 439.5C365.7 450.7 457.3 461.3 548.8 456.2C640.3 451 731.7 430 823 419.3C914.3 408.7 1005.7 408.3 1097 413.5C1188.3 418.7 1279.7 429.3 1371.2 438.3C1462.7 447.3 1554.3 454.7 1645.8 449.2C1737.3 443.7 1828.7 425.3 1874.3 416.2L1920 407L1920 601L1874.3 601C1828.7 601 1737.3 601 1645.8 601C1554.3 601 1462.7 601 1371.2 601C1279.7 601 1188.3 601 1097 601C1005.7 601 914.3 601 823 601C731.7 601 640.3 601 548.8 601C457.3 601 365.7 601 274.2 601C182.7 601 91.3 601 45.7 601L0 601Z" fill="#663399"></path><path d="M0 451L45.7 450C91.3 449 182.7 447 274.2 450.3C365.7 453.7 457.3 462.3 548.8 468.7C640.3 475 731.7 479 823 483.3C914.3 487.7 1005.7 492.3 1097 494.8C1188.3 497.3 1279.7 497.7 1371.2 490.3C1462.7 483 1554.3 468 1645.8 465.8C1737.3 463.7 1828.7 474.3 1874.3 479.7L1920 485L1920 601L1874.3 601C1828.7 601 1737.3 601 1645.8 601C1554.3 601 1462.7 601 1371.2 601C1279.7 601 1188.3 601 1097 601C1005.7 601 914.3 601 823 601C731.7 601 640.3 601 548.8 601C457.3 601 365.7 601 274.2 601C182.7 601 91.3 601 45.7 601L0 601Z" fill="#8458ae"></path><path d="M0 474L45.7 473.5C91.3 473 182.7 472 274.2 479.2C365.7 486.3 457.3 501.7 548.8 510.7C640.3 519.7 731.7 522.3 823 521.7C914.3 521 1005.7 517 1097 511.8C1188.3 506.7 1279.7 500.3 1371.2 493.3C1462.7 486.3 1554.3 478.7 1645.8 483.3C1737.3 488 1828.7 505 1874.3 513.5L1920 522L1920 601L1874.3 601C1828.7 601 1737.3 601 1645.8 601C1554.3 601 1462.7 601 1371.2 601C1279.7 601 1188.3 601 1097 601C1005.7 601 914.3 601 823 601C731.7 601 640.3 601 548.8 601C457.3 601 365.7 601 274.2 601C182.7 601 91.3 601 45.7 601L0 601Z" fill="#a17dc3"></path><path d="M0 533L45.7 531.8C91.3 530.7 182.7 528.3 274.2 527.2C365.7 526 457.3 526 548.8 526.8C640.3 527.7 731.7 529.3 823 534C914.3 538.7 1005.7 546.3 1097 543C1188.3 539.7 1279.7 525.3 1371.2 520.7C1462.7 516 1554.3 521 1645.8 522.2C1737.3 523.3 1828.7 520.7 1874.3 519.3L1920 518L1920 601L1874.3 601C1828.7 601 1737.3 601 1645.8 601C1554.3 601 1462.7 601 1371.2 601C1279.7 601 1188.3 601 1097 601C1005.7 601 914.3 601 823 601C731.7 601 640.3 601 548.8 601C457.3 601 365.7 601 274.2 601C182.7 601 91.3 601 45.7 601L0 601Z" fill="#bea3d8"></path><path d="M0 543L45.7 548.2C91.3 553.3 182.7 563.7 274.2 568.3C365.7 573 457.3 572 548.8 566.7C640.3 561.3 731.7 551.7 823 547.5C914.3 543.3 1005.7 544.7 1097 550.8C1188.3 557 1279.7 568 1371.2 571C1462.7 574 1554.3 569 1645.8 568.5C1737.3 568 1828.7 572 1874.3 574L1920 576L1920 601L1874.3 601C1828.7 601 1737.3 601 1645.8 601C1554.3 601 1462.7 601 1371.2 601C1279.7 601 1188.3 601 1097 601C1005.7 601 914.3 601 823 601C731.7 601 640.3 601 548.8 601C457.3 601 365.7 601 274.2 601C182.7 601 91.3 601 45.7 601L0 601Z" fill="#dccaed"></path></svg>
